<svg xmlns="http://www.w3.org/2000/svg" xmlns:xlink="http://www.w3.org/1999/xlink" xmlns:lucid="lucid" width="1158.06" height="720"><g transform="translate(-20 -34.99999999999997)" lucid:page-tab-id="ouk5JQl-VITZ"><path d="M252.43 517.05H836.1L970.24 735H119.2z" stroke="#fff" stroke-width="6" fill="#3278cc"/><path d="M384.22 304.74H704.3l129.1 210.68H256.57z" stroke="#fff" stroke-width="6" fill="#5ea0ef"/><path d="M389.92 300.92h311.14L545.5 55z" stroke="#fff" stroke-width="6" fill="#a5ceff"/><path d="M256.57 568.63H833.4v119.05H256.57z" stroke="#000" stroke-opacity="0" stroke-width="2" fill="#fff" fill-opacity="0"/><use xlink:href="#a" transform="matrix(1,0,0,1,261.56657580740205,573.627373894788) translate(183.03703703703704 48.71527777777778)"/><use xlink:href="#b" transform="matrix(1,0,0,1,261.56657580740205,573.627373894788) translate(246.55555555555554 48.71527777777778)"/><use xlink:href="#c" transform="matrix(1,0,0,1,261.56657580740205,573.627373894788) translate(57.97222222222226 73.60416666666667)"/><use xlink:href="#d" transform="matrix(1,0,0,1,261.56657580740205,573.627373894788) translate(168.8055555555556 73.60416666666667)"/><use xlink:href="#e" transform="matrix(1,0,0,1,261.56657580740205,573.627373894788) translate(200.91666666666669 73.60416666666667)"/><use xlink:href="#f" transform="matrix(1,0,0,1,261.56657580740205,573.627373894788) translate(246.36111111111111 73.60416666666667)"/><use xlink:href="#g" transform="matrix(1,0,0,1,261.56657580740205,573.627373894788) translate(270.69444444444446 73.60416666666667)"/><use xlink:href="#h" transform="matrix(1,0,0,1,261.56657580740205,573.627373894788) translate(362.69444444444446 73.60416666666667)"/><use xlink:href="#i" transform="matrix(1,0,0,1,261.56657580740205,573.627373894788) translate(403.69444444444446 73.60416666666667)"/><use xlink:href="#j" transform="matrix(1,0,0,1,261.56657580740205,573.627373894788) translate(461.41666666666663 73.60416666666667)"/><path d="M311.17 352.6h451.87v119.06H311.17z" stroke="#000" stroke-opacity="0" stroke-width="2" fill="#fff" fill-opacity="0"/><use xlink:href="#a" transform="matrix(1,0,0,1,316.165228241323,357.60675711412347) translate(120.93827160493828 34.96527777777778)"/><use xlink:href="#k" transform="matrix(1,0,0,1,316.165228241323,357.60675711412347) translate(184.45679012345678 34.96527777777778)"/><use xlink:href="#l" transform="matrix(1,0,0,1,316.165228241323,357.60675711412347) translate(46.444444444444485 59.85416666666667)"/><use xlink:href="#m" transform="matrix(1,0,0,1,316.165228241323,357.60675711412347) translate(206.05555555555554 59.85416666666667)"/><use xlink:href="#n" transform="matrix(1,0,0,1,316.165228241323,357.60675711412347) translate(230.38888888888889 59.85416666666667)"/><use xlink:href="#o" transform="matrix(1,0,0,1,316.165228241323,357.60675711412347) translate(276.94444444444446 59.85416666666667)"/><use xlink:href="#p" transform="matrix(1,0,0,1,316.165228241323,357.60675711412347) translate(377.83333333333326 59.85416666666667)"/><use xlink:href="#q" transform="matrix(1,0,0,1,316.165228241323,357.60675711412347) translate(55.69444444444446 83.85416666666667)"/><use xlink:href="#r" transform="matrix(1,0,0,1,316.165228241323,357.60675711412347) translate(199.9722222222222 83.85416666666667)"/><use xlink:href="#s" transform="matrix(1,0,0,1,316.165228241323,357.60675711412347) translate(309.80555555555554 83.85416666666667)"/><path d="M389.92 111h311.14v176H389.92z" stroke="#000" stroke-opacity="0" stroke-width="2" fill="#fff" fill-opacity="0"/><use xlink:href="#t" transform="matrix(1,0,0,1,394.9178947981465,116) translate(81.0925925925926 63.36004977777778)"/><use xlink:href="#u" transform="matrix(1,0,0,1,394.9178947981465,116) translate(128.5925925925926 90.02671644444445)"/><use xlink:href="#v" transform="matrix(1,0,0,1,394.9178947981465,116) translate(81.33950617283952 116.69338311111113)"/><use xlink:href="#w" transform="matrix(1,0,0,1,394.9178947981465,116) translate(86.16666666666667 141.58227200000002)"/><use xlink:href="#x" transform="matrix(1,0,0,1,394.9178947981465,116) translate(197.05555555555554 141.58227200000002)"/><use xlink:href="#y" transform="matrix(1,0,0,1,394.9178947981465,116) translate(76.1388888888889 165.58227200000002)"/><use xlink:href="#z" transform="matrix(1,0,0,1,394.9178947981465,116) translate(168.19444444444446 165.58227200000002)"/><path d="M776.23 404.58c0 9.86-7.7 17.86-17.18 17.86-9.5 0-17.18-8-17.18-17.86s7.7-17.85 17.18-17.85c9.5 0 17.18 8 17.18 17.85z" stroke="#5ea0ef" stroke-width="6" fill="#fff"/><path d="M653.92 201.17h5.65m11.3 0h11.3m11.3 0h11.3m9.32 1.97h11.3m11.28 0h11.3m11.3 0h5.65" stroke="#a5ceff" stroke-width="3" fill="none"/><path d="M653.96 202.67h-1.74l.2-1.5-.2-1.5h1.74zM766.43 203.13l.05 1.5h-1.6v-3h1.6z" stroke="#a5ceff" stroke-width=".05" fill="#a5ceff"/><path d="M780.76 404.58h5.6m11.2 0h11.2m11.2 0h11.2m9.13 2.1h11.2m11.2 0h11.2m11.2 0h5.6" stroke="#5ea0ef" stroke-width="3" fill="none"/><path d="M780.8 406.08h-1.74l.2-1.5-.2-1.5h1.74zM892.2 406.64v1.1l.03.43h-1.57v-3h1.6z" stroke="#5ea0ef" stroke-width=".05" fill="#5ea0ef"/><path d="M926.37 622.58h6.3m12.6 0h12.6m12.58 0h12.6m12.58 0h12.6m12.6 0h6.28M926.4 622.58h-1.53" stroke="#3278cc" stroke-width="3" fill="none"/><path d="M1028.56 624.07h-1.48v-3h1.6z" stroke="#3278cc" stroke-width=".05" fill="#3278cc"/><path d="M1013.7 406.67c0 33.75-26.87 61.1-60 61.1-33.14 0-60-27.35-60-61.1s26.86-61.12 60-61.12c33.13 0 60 27.37 60 61.12z" stroke="#5ea0ef" stroke-width="3" fill-opacity="0"/><path d="M953.7 445.78c-14.43 0-29.68-4-29.68-11.35V378.9c0-7.35 15.25-11.34 29.68-11.34 14.36 0 29.67 4 29.67 11.34v55.53c0 7.36-15.3 11.35-29.67 11.35zm0-74.86c-16.33 0-26.36 4.62-26.36 7.98v55.53c0 3.3 9.98 7.98 26.36 7.98s26.35-4.6 26.35-7.97V378.9c0-3.36-10.03-7.98-26.35-7.98z" stroke="#fff" stroke-opacity="0" fill="#5ea0ef"/><path d="M953.7 388.6c-14.43 0-29.68-3.97-29.68-11.36h3.33c0 3.33 9.97 8.04 26.35 8.04 16.38 0 26.35-4.67 26.35-8.04h3.32c0 7.4-15.3 11.37-29.67 11.37z" stroke="#fff" stroke-opacity="0" fill="#5ea0ef"/><path d="M1158.06 624.1c0 35.24-28.66 63.82-64 63.82-35.35 0-64-28.58-64-63.83s28.65-63.83 64-63.83c35.34 0 64 28.58 64 63.82z" stroke="#3278cc" stroke-width="3" fill-opacity="0"/><path d="M1130.62 612.13c1.92 0 3.44 1.6 3.44 3.43v14.04c0 1.83-1.52 3.43-3.44 3.43h-5.28c-.56 1.75-1.36 3.27-2.24 4.8l3.68 3.66c.64.62 1.04 1.42 1.04 2.38 0 .88-.4 1.75-1.04 2.4l-9.04 8.93c-1.28 1.36-3.44 1.36-4.8 0l-3.68-3.66c-1.52.88-2.96 1.67-4.8 2.23v5.27c0 1.9-1.52 3.43-3.36 3.43h-14.08c-1.84 0-3.36-1.52-3.36-3.43v-5.27c-1.84-.56-3.36-1.36-4.96-2.23l-3.68 3.67c-.64.65-1.44 1.04-2.4 1.04-.88 0-1.76-.4-2.4-1.03l-8.96-9c-1.36-1.28-1.36-3.44 0-4.8l3.68-3.66c-.88-1.52-1.68-2.96-2.24-4.7h-5.2c-1.92 0-3.44-1.6-3.44-3.44v-14.04c0-1.84 1.52-3.43 3.44-3.43h5.28c.56-1.84 1.36-3.35 2.24-4.87l-3.68-3.67c-.64-.65-1.04-1.52-1.04-2.48 0-.88.4-1.76 1.04-2.4l9.04-8.93c1.28-1.37 3.44-1.37 4.8 0l3.68 3.66c1.52-.88 2.96-1.68 4.8-2.23v-5.1c0-1.92 1.52-3.44 3.36-3.44h14.08c1.84 0 3.36 1.5 3.36 3.42v5.2c1.76.63 3.2 1.34 4.64 2.22l3.6-3.6c1.36-1.35 3.6-1.35 4.88 0l8.88 8.95c1.28 1.34 1.28 3.42 0 4.77l-3.68 3.67c.88 1.52 1.6 3.03 2.24 4.8zm-.16 17.23V615.8h-6.8c-.8 0-1.52-.56-1.76-1.36-.64-2.55-1.68-4.23-2.96-6.46-.4-.72-.24-1.6.32-2.15l4.48-4.55-8.56-8.62-4.48 4.47c-.56.56-1.44.72-2.16.24l-.32-.16c-2.16-1.27-3.68-2.14-6-2.78-.8-.24-1.36-.96-1.36-1.76v-6.38h-13.6v6.3c0 .8-.56 1.52-1.36 1.76-2.32.56-3.92 1.5-6.08 2.8l-.32.15c-.72.4-1.6.3-2.24-.33l-4.48-4.47-8.72 8.62 4.48 4.55c.64.56.72 1.43.32 2.15-1.28 2.23-2.32 4.07-2.96 6.62-.24.8-.96 1.36-1.76 1.36h-6.48v13.56h6.4c.8 0 1.52.56 1.76 1.36.56 2.3 1.52 3.9 2.72 6.06l.24.32c.4.72.32 1.6-.32 2.23l-4.48 4.47 8.64 8.7 4.48-4.47c.64-.64 1.52-.72 2.24-.32 2.24 1.37 4.08 2.32 6.56 2.96.8.24 1.36.96 1.36 1.75v6.48h13.6v-6.47c0-.78.56-1.5 1.36-1.74 2.32-.56 3.84-1.44 6-2.7l.4-.25c.72-.4 1.6-.23 2.16.33l4.56 4.47 8.72-8.62-4.48-4.47c-.64-.63-.72-1.5-.32-2.22 1.28-2.16 2.32-3.9 2.96-6.46.24-.8.96-1.36 1.76-1.36zm-36.4-24.57c9.84 0 17.84 7.97 17.84 17.78 0 9.8-8 17.8-17.84 17.8s-17.84-8-17.84-17.8 8-17.8 17.84-17.8zm0 31.9c7.84 0 14.16-6.3 14.16-14.12 0-7.82-6.32-14.12-14.16-14.12s-14.16 6.3-14.16 14.12c0 7.82 6.32 14.12 14.16 14.12z" stroke="#000" stroke-opacity="0" fill="#3278cc"/><path d="M919.63 622.58c0 9.86-7.7 17.85-17.18 17.85-9.5 0-17.18-8-17.18-17.85 0-9.86 7.7-17.86 17.18-17.86 9.5 0 17.18 8 17.18 17.86z" stroke="#3278cc" stroke-width="6" fill="#fff"/><path d="M885.7 203.14c0 32.88-26.37 59.53-58.9 59.53-32.5 0-58.87-26.65-58.87-59.53s26.36-59.53 58.88-59.53c32.53 0 58.9 26.66 58.9 59.54z" stroke="#a5ceff" stroke-width="3" fill-opacity="0"/><path d="M793.75 172.42a6 6 0 0 0-6 6v47.53a6 6 0 0 0 6 6h65.28a6 6 0 0 0 6-6v-47.53a6 6 0 0 0-6-6z" fill="none"/><path d="M805.14 231.95a5.8 5.8 0 0 1-5.8-5.8v-18.17a5.8 5.8 0 0 1 5.8-5.8 5.8 5.8 0 0 1 5.8 5.8v18.17a5.8 5.8 0 0 1-5.8 5.8zm34.78 0a5.8 5.8 0 0 1-5.8-5.8v-36.03a5.8 5.8 0 0 1 5.8-5.8 5.8 5.8 0 0 1 5.8 5.8v36.03a5.8 5.8 0 0 1-5.8 5.8z" stroke="#a5ceff" stroke-width="3" fill-opacity="0"/><path d="M816.73 231.95a5.8 5.8 0 0 1-5.8-5.8v-9.24a5.8 5.8 0 0 1 5.8-5.8 5.8 5.8 0 0 1 5.8 5.8v9.25a5.8 5.8 0 0 1-5.8 5.8zm34.78 0a5.8 5.8 0 0 1-5.8-5.8v-27.1a5.8 5.8 0 0 1 5.8-5.8 5.8 5.8 0 0 1 5.8 5.8v27.1a5.8 5.8 0 0 1-5.8 5.8z" stroke="#a5ceff" stroke-width="3" fill-opacity="0"/><path d="M787.75 172.42v53.53a6 6 0 0 0 6 6h71.28" stroke="#a5ceff" stroke-width="6" fill="none"/><path d="M649.4 201.17c0 9.86-7.7 17.85-17.2 17.85-9.48 0-17.17-8-17.17-17.85 0-9.86 7.7-17.86 17.18-17.86 9.5 0 17.2 8 17.2 17.87z" stroke="#a5ceff" stroke-width="6" fill="#fff"/><path d="M40 312.14a6 6 0 0 1 6-6h165.87a6 6 0 0 1 6 6V508a6 6 0 0 1-6 6H46a6 6 0 0 1-6-6z" fill="none"/><path d="M217.87 514c-5.52 0-10-4.46-10-10V420.1c0-5.52-4.47-10-10-10 5.53 0 10-4.48 10-10v-83.94c0-5.52 4.48-10 10-10" stroke="#5ea0ef" stroke-width="3" fill="none"/><g><use xlink:href="#A" transform="matrix(1,0,0,1,45,311.14549116087943) translate(40.3425925925926 65.66666666666669)"/><use xlink:href="#B" transform="matrix(1,0,0,1,45,311.14549116087943) translate(12.657407407407433 105.66666666666666)"/><use xlink:href="#C" transform="matrix(1,0,0,1,45,311.14549116087943) translate(27.379629629629648 145.66666666666666)"/></g><path d="M1055.23 570.27l-63.97-92.2" stroke="#3278cc" stroke-width="2" fill="none"/><path d="M1056.63 570.53l-1.37.93-.27.2-.6-.84 1.64-1.14z" stroke="#3278cc" stroke-width=".05" fill="#3278cc"/><path d="M982.56 465.53l11.94 9.08-7.62 5.3z" stroke="#3278cc" stroke-width="2" fill="#3278cc"/><path d="M910.18 361.12L860.35 275" stroke="#5ea0ef" stroke-width="2" fill="none"/><path d="M911.4 361.25l-1.45 1.48-.65-1.13 1.73-1z" stroke="#5ea0ef" stroke-width=".05" fill="#5ea0ef"/><path d="M852.7 261.8l11.16 10.02-8.02 4.64z" stroke="#5ea0ef" stroke-width="2" fill="#5ea0ef"/><defs><path fill="#fff" d="M250-142C247-53 197 0 108 0H6l48-248c105-5 200 3 196 106zm-49 2c1-57-42-72-103-68L66-40c84 6 135-22 135-100" id="D"/><path fill="#fff" d="M183 0l-10-63H79L44 0H-7l138-248h61L234 0h-51zm-14-102l-15-108c-16 38-36 73-55 108h70" id="E"/><path fill="#fff" d="M157-208L117 0H65l40-208H25l8-40h212l-8 40h-80" id="F"/><g id="a"><use transform="matrix(0.06172839506172839,0,0,0.06172839506172839,0,0)" xlink:href="#D"/><use transform="matrix(0.06172839506172839,0,0,0.06172839506172839,15.987654320987653,0)" xlink:href="#E"/><use transform="matrix(0.06172839506172839,0,0,0.06172839506172839,30.30864197530864,0)" xlink:href="#F"/><use transform="matrix(0.06172839506172839,0,0,0.06172839506172839,42.16049382716049,0)" xlink:href="#E"/></g><path fill="#fff" d="M178-136c88 48 22 151-73 140C49-3 12-15 4-64l51-9c1 50 111 53 115 3-16-63-132-20-133-112 0-93 190-91 199-10l-50 12c-4-41-93-50-97-4 7 38 59 32 89 48" id="G"/><path fill="#fff" d="M155 0L90-199 52 0H6l48-248h62l66 201 38-201h46L218 0h-63" id="H"/><path fill="#fff" d="M258-177c0 46-32 67-71 75L235 0h-57l-41-94H76L58 0H6l48-248c89 2 204-19 204 71zm-53 3c0-46-63-30-107-33l-14 73c51-2 120 13 121-40" id="I"/><g id="b"><use transform="matrix(0.06172839506172839,0,0,0.06172839506172839,0,0)" xlink:href="#G"/><use transform="matrix(0.06172839506172839,0,0,0.06172839506172839,14.814814814814813,0)" xlink:href="#F"/><use transform="matrix(0.06172839506172839,0,0,0.06172839506172839,26.666666666666664,0)" xlink:href="#E"/><use transform="matrix(0.06172839506172839,0,0,0.06172839506172839,42.654320987654316,0)" xlink:href="#H"/><use transform="matrix(0.06172839506172839,0,0,0.06172839506172839,58.64197530864197,0)" xlink:href="#D"/><use transform="matrix(0.06172839506172839,0,0,0.06172839506172839,74.62962962962962,0)" xlink:href="#E"/><use transform="matrix(0.06172839506172839,0,0,0.06172839506172839,90.61728395061728,0)" xlink:href="#I"/><use transform="matrix(0.06172839506172839,0,0,0.06172839506172839,106.60493827160494,0)" xlink:href="#D"/><use transform="matrix(0.06172839506172839,0,0,0.06172839506172839,122.5925925925926,0)" xlink:href="#G"/></g><path fill="#fff" d="M13-52c0-97 37-163 91-209h50c-53 52-92 115-92 212 0 48 8 90 25 124H39C22 40 13-2 13-52" id="J"/><path fill="#fff" d="M45-171c29-32 103-29 114 14 2-11 5-23 8-33h47L176-2c-3 70-92 96-155 64C9 56 1 42-1 25l50-5c2 28 48 27 63 11 13-13 20-45 21-66-13 20-30 35-62 36-87 3-60-134-26-172zM94-35c41-3 55-43 55-86 0-24-12-39-35-39-43 0-51 48-51 90 0 22 9 37 31 35" id="K"/><path fill="#fff" d="M69 3c-96 0-34-126-28-193h49L65-57c6 42 62 18 71-6 14-38 17-86 28-127h50L178 0h-47c0-11 4-26 3-33-14 20-30 37-65 36" id="L"/><path fill="#fff" d="M50-224l7-37h49l-7 37H50zM6 0l37-190h49L55 0H6" id="M"/><path fill="#fff" d="M132-28C118-9 101 4 69 4 30 4 10-23 10-62c0-70 24-129 92-132 31-1 47 14 56 35l19-102h49L179 0h-49zM62-69c0 22 7 39 29 39 45-2 54-45 57-90 2-27-10-40-33-40-44 0-53 48-53 91" id="N"/><path fill="#fff" d="M114-194c63-2 87 48 72 110H63c-3 28 1 55 31 54 21-1 32-13 37-29l44 13C160-14 137 4 91 4 41 4 11-22 11-73c0-71 33-119 103-121zm30 77c14-47-50-61-67-22-3 6-6 13-8 22h75" id="O"/><path fill="#fff" d="M6 0l51-261h49L55 0H6" id="P"/><path fill="#fff" d="M151-194c95 0 34 128 28 194h-49l25-134c0-29-45-25-59-9C67-111 69-48 56 0H6l36-190h47l-4 32c15-20 33-36 66-36" id="Q"/><path fill="#fff" d="M144-137c-1-29-70-35-71-2 16 41 103 10 103 80C176 9 79 16 32-9 18-17 9-31 4-48l44-6c3 32 80 36 82 1-15-42-103-11-103-82 0-77 157-79 161-8" id="R"/><g id="c"><use transform="matrix(0.055555555555555546,0,0,0.055555555555555546,0,0)" xlink:href="#J"/><use transform="matrix(0.055555555555555546,0,0,0.055555555555555546,6.61111111111111,0)" xlink:href="#K"/><use transform="matrix(0.055555555555555546,0,0,0.055555555555555546,18.777777777777775,0)" xlink:href="#L"/><use transform="matrix(0.055555555555555546,0,0,0.055555555555555546,30.94444444444444,0)" xlink:href="#M"/><use transform="matrix(0.055555555555555546,0,0,0.055555555555555546,36.49999999999999,0)" xlink:href="#N"/><use transform="matrix(0.055555555555555546,0,0,0.055555555555555546,48.66666666666666,0)" xlink:href="#O"/><use transform="matrix(0.055555555555555546,0,0,0.055555555555555546,59.777777777777764,0)" xlink:href="#P"/><use transform="matrix(0.055555555555555546,0,0,0.055555555555555546,65.33333333333331,0)" xlink:href="#M"/><use transform="matrix(0.055555555555555546,0,0,0.055555555555555546,70.88888888888887,0)" xlink:href="#Q"/><use transform="matrix(0.055555555555555546,0,0,0.055555555555555546,83.05555555555554,0)" xlink:href="#O"/><use transform="matrix(0.055555555555555546,0,0,0.055555555555555546,94.16666666666666,0)" xlink:href="#R"/></g><path fill="#fff" d="M93-157L62 0H13l31-157H16l6-33h28c2-54 40-81 100-68l-6 32c-29-8-44 9-45 36h38l-7 33H93" id="S"/><path fill="#fff" d="M124-194c51 0 84 22 84 74C207-44 167 4 94 4 43 4 11-23 11-74c0-74 41-120 113-120zM99-30c46 0 58-42 58-86 0-27-11-44-37-44-44 0-55 40-57 84-1 27 10 45 36 46" id="T"/><path fill="#fff" d="M84-151c13-25 34-51 72-40l-8 41C67-170 71-64 56 0H6l36-190h47" id="U"/><g id="d"><use transform="matrix(0.055555555555555546,0,0,0.055555555555555546,0,0)" xlink:href="#S"/><use transform="matrix(0.055555555555555546,0,0,0.055555555555555546,6.61111111111111,0)" xlink:href="#T"/><use transform="matrix(0.055555555555555546,0,0,0.055555555555555546,18.777777777777775,0)" xlink:href="#U"/></g><path fill="#fff" d="M150-105c8-23 8-54-22-51-68 7-54 98-72 156H6l50-261h50L85-158c15-20 33-36 66-36 95 0 34 128 28 194h-49" id="V"/><path fill="#fff" d="M212 0h-52l-8-156L82 0H30L17-190h46l2 145 66-145h53l8 145 60-145h47" id="W"/><g id="e"><use transform="matrix(0.055555555555555546,0,0,0.055555555555555546,0,0)" xlink:href="#V"/><use transform="matrix(0.055555555555555546,0,0,0.055555555555555546,12.166666666666664,0)" xlink:href="#T"/><use transform="matrix(0.055555555555555546,0,0,0.055555555555555546,24.33333333333333,0)" xlink:href="#W"/></g><path fill="#fff" d="M72-63c-8 23 5 39 32 30L98-1C54 14 12-6 23-64l18-93H15l7-33h28l24-45h31l-8 45h35l-6 33H90" id="X"/><g id="f"><use transform="matrix(0.055555555555555546,0,0,0.055555555555555546,0,0)" xlink:href="#X"/><use transform="matrix(0.055555555555555546,0,0,0.055555555555555546,6.61111111111111,0)" xlink:href="#T"/></g><path fill="#fff" d="M67-101c-8 29-7 73 27 71 23-2 32-16 39-37l48 9C170-19 141 4 91 4 36 4 7-28 12-86c6-75 61-124 140-103 26 7 40 29 43 59l-50 4c-1-20-9-34-29-34-35 0-41 29-49 59" id="Y"/><g id="g"><use transform="matrix(0.055555555555555546,0,0,0.055555555555555546,0,0)" xlink:href="#R"/><use transform="matrix(0.055555555555555546,0,0,0.055555555555555546,11.111111111111109,0)" xlink:href="#X"/><use transform="matrix(0.055555555555555546,0,0,0.055555555555555546,17.722222222222218,0)" xlink:href="#U"/><use transform="matrix(0.055555555555555546,0,0,0.055555555555555546,25.499999999999993,0)" xlink:href="#L"/><use transform="matrix(0.055555555555555546,0,0,0.055555555555555546,37.66666666666666,0)" xlink:href="#Y"/><use transform="matrix(0.055555555555555546,0,0,0.055555555555555546,48.777777777777764,0)" xlink:href="#X"/><use transform="matrix(0.055555555555555546,0,0,0.055555555555555546,55.38888888888887,0)" xlink:href="#L"/><use transform="matrix(0.055555555555555546,0,0,0.055555555555555546,67.55555555555554,0)" xlink:href="#U"/><use transform="matrix(0.055555555555555546,0,0,0.055555555555555546,75.33333333333331,0)" xlink:href="#O"/></g><path fill="#fff" d="M166-52c-4 17 5 29 24 23l-3 27c-30 11-74 1-67-34C105-15 91 4 56 4 23 4 3-15 2-49c0-64 63-67 128-67 10-22 3-53-29-45-13 3-22 10-25 24l-46-5c5-64 156-77 153 0-1 33-11 60-17 90zM97-88c-44-9-64 57-19 57 31 0 42-28 47-57H97" id="Z"/><g id="h"><use transform="matrix(0.055555555555555546,0,0,0.055555555555555546,0,0)" xlink:href="#Z"/><use transform="matrix(0.055555555555555546,0,0,0.055555555555555546,11.111111111111109,0)" xlink:href="#Q"/><use transform="matrix(0.055555555555555546,0,0,0.055555555555555546,23.27777777777777,0)" xlink:href="#N"/></g><path fill="#fff" d="M255-194c90 0 29 129 24 194h-49l25-136c-7-39-53-14-60 9-12 38-18 85-28 127h-49l25-136c2-29-39-23-50-7C69-108 68-47 56 0H6l36-190h48c-1 10-6 24-4 32 12-20 27-36 57-36s46 15 50 41c14-21 29-41 62-41" id="aa"/><g id="i"><use transform="matrix(0.055555555555555546,0,0,0.055555555555555546,0,0)" xlink:href="#Q"/><use transform="matrix(0.055555555555555546,0,0,0.055555555555555546,12.166666666666664,0)" xlink:href="#Z"/><use transform="matrix(0.055555555555555546,0,0,0.055555555555555546,23.27777777777777,0)" xlink:href="#aa"/><use transform="matrix(0.055555555555555546,0,0,0.055555555555555546,41.05555555555554,0)" xlink:href="#O"/></g><path fill="#fff" d="M109-139C109-39 71 27 18 75h-50C22 21 61-44 61-142c0-46-11-87-27-119h47c17 31 28 75 28 122" id="ab"/><g id="j"><use transform="matrix(0.055555555555555546,0,0,0.055555555555555546,0,0)" xlink:href="#N"/><use transform="matrix(0.055555555555555546,0,0,0.055555555555555546,12.166666666666664,0)" xlink:href="#Z"/><use transform="matrix(0.055555555555555546,0,0,0.055555555555555546,23.27777777777777,0)" xlink:href="#X"/><use transform="matrix(0.055555555555555546,0,0,0.055555555555555546,29.888888888888882,0)" xlink:href="#Z"/><use transform="matrix(0.055555555555555546,0,0,0.055555555555555546,40.99999999999999,0)" xlink:href="#ab"/></g><path fill="#fff" d="M76-105c-23 59 45 89 88 55 12-10 18-24 22-45l30-153h51C238-143 259 4 118 4 48 4 11-39 25-112l26-136h52" id="ac"/><path fill="#fff" d="M161-211c-63 0-91 46-91 110 0 39 17 65 58 64 38-1 60-20 74-45l40 20C220-23 184 0 125 4 9 13-10-144 57-208c33-50 166-62 196-1 4 8 9 18 11 27l-48 12c-6-24-25-41-55-41" id="ad"/><path fill="#fff" d="M6 0l48-248h195l-8 40H98l-12 63h132l-7 40H79L66-40h150l-8 40H6" id="ae"/><g id="k"><use transform="matrix(0.06172839506172839,0,0,0.06172839506172839,0,0)" xlink:href="#G"/><use transform="matrix(0.06172839506172839,0,0,0.06172839506172839,14.814814814814813,0)" xlink:href="#F"/><use transform="matrix(0.06172839506172839,0,0,0.06172839506172839,28.33333333333333,0)" xlink:href="#I"/><use transform="matrix(0.06172839506172839,0,0,0.06172839506172839,44.32098765432098,0)" xlink:href="#ac"/><use transform="matrix(0.06172839506172839,0,0,0.06172839506172839,60.30864197530863,0)" xlink:href="#ad"/><use transform="matrix(0.06172839506172839,0,0,0.06172839506172839,76.29629629629629,0)" xlink:href="#F"/><use transform="matrix(0.06172839506172839,0,0,0.06172839506172839,89.81481481481481,0)" xlink:href="#ac"/><use transform="matrix(0.06172839506172839,0,0,0.06172839506172839,105.80246913580247,0)" xlink:href="#I"/><use transform="matrix(0.06172839506172839,0,0,0.06172839506172839,121.79012345679013,0)" xlink:href="#ae"/></g><path fill="#fff" d="M156-122c2-23-7-37-28-37-47 0-58 44-58 89 0 24 12 40 36 40 43 0 47-49 50-92zM-8 75l50-265h48c0 10-3 24-3 30 22-50 127-45 121 29-6 73-21 135-92 135-29 0-46-14-55-35L41 75H-8" id="af"/><g id="l"><use transform="matrix(0.055555555555555546,0,0,0.055555555555555546,0,0)" xlink:href="#J"/><use transform="matrix(0.055555555555555546,0,0,0.055555555555555546,6.61111111111111,0)" xlink:href="#M"/><use transform="matrix(0.055555555555555546,0,0,0.055555555555555546,12.166666666666664,0)" xlink:href="#aa"/><use transform="matrix(0.055555555555555546,0,0,0.055555555555555546,29.94444444444444,0)" xlink:href="#af"/><use transform="matrix(0.055555555555555546,0,0,0.055555555555555546,42.1111111111111,0)" xlink:href="#P"/><use transform="matrix(0.055555555555555546,0,0,0.055555555555555546,47.66666666666666,0)" xlink:href="#O"/><use transform="matrix(0.055555555555555546,0,0,0.055555555555555546,58.777777777777764,0)" xlink:href="#aa"/><use transform="matrix(0.055555555555555546,0,0,0.055555555555555546,76.55555555555554,0)" xlink:href="#O"/><use transform="matrix(0.055555555555555546,0,0,0.055555555555555546,87.66666666666666,0)" xlink:href="#Q"/><use transform="matrix(0.055555555555555546,0,0,0.055555555555555546,99.83333333333331,0)" xlink:href="#X"/><use transform="matrix(0.055555555555555546,0,0,0.055555555555555546,106.44444444444443,0)" xlink:href="#Z"/><use transform="matrix(0.055555555555555546,0,0,0.055555555555555546,117.55555555555553,0)" xlink:href="#X"/><use transform="matrix(0.055555555555555546,0,0,0.055555555555555546,124.16666666666667,0)" xlink:href="#M"/><use transform="matrix(0.055555555555555546,0,0,0.055555555555555546,129.7222222222222,0)" xlink:href="#T"/><use transform="matrix(0.055555555555555546,0,0,0.055555555555555546,141.88888888888886,0)" xlink:href="#Q"/></g><g id="m"><use transform="matrix(0.055555555555555546,0,0,0.055555555555555546,0,0)" xlink:href="#T"/><use transform="matrix(0.055555555555555546,0,0,0.055555555555555546,12.166666666666664,0)" xlink:href="#S"/></g><g id="n"><use transform="matrix(0.055555555555555546,0,0,0.055555555555555546,0,0)" xlink:href="#N"/><use transform="matrix(0.055555555555555546,0,0,0.055555555555555546,12.166666666666664,0)" xlink:href="#Z"/><use transform="matrix(0.055555555555555546,0,0,0.055555555555555546,23.27777777777777,0)" xlink:href="#X"/><use transform="matrix(0.055555555555555546,0,0,0.055555555555555546,29.888888888888882,0)" xlink:href="#Z"/></g><g id="o"><use transform="matrix(0.055555555555555546,0,0,0.055555555555555546,0,0)" xlink:href="#R"/><use transform="matrix(0.055555555555555546,0,0,0.055555555555555546,11.111111111111109,0)" xlink:href="#X"/><use transform="matrix(0.055555555555555546,0,0,0.055555555555555546,17.722222222222218,0)" xlink:href="#Z"/><use transform="matrix(0.055555555555555546,0,0,0.055555555555555546,28.83333333333333,0)" xlink:href="#Q"/><use transform="matrix(0.055555555555555546,0,0,0.055555555555555546,40.99999999999999,0)" xlink:href="#N"/><use transform="matrix(0.055555555555555546,0,0,0.055555555555555546,53.16666666666666,0)" xlink:href="#Z"/><use transform="matrix(0.055555555555555546,0,0,0.055555555555555546,64.27777777777777,0)" xlink:href="#U"/><use transform="matrix(0.055555555555555546,0,0,0.055555555555555546,72.05555555555554,0)" xlink:href="#N"/><use transform="matrix(0.055555555555555546,0,0,0.055555555555555546,84.2222222222222,0)" xlink:href="#R"/></g><g id="p"><use transform="matrix(0.055555555555555546,0,0,0.055555555555555546,0,0)" xlink:href="#M"/><use transform="matrix(0.055555555555555546,0,0,0.055555555555555546,5.5555555555555545,0)" xlink:href="#Q"/></g><path fill="#fff" d="M100 10C77 47 50 87-15 72l7-35c37 9 51-18 65-41L20-190h51L89-44l73-146h53" id="ag"/><path fill="#fff" d="M10-72l8-43h92l-9 43H10" id="ah"/><g id="q"><use transform="matrix(0.055555555555555546,0,0,0.055555555555555546,0,0)" xlink:href="#Z"/><use transform="matrix(0.055555555555555546,0,0,0.055555555555555546,11.111111111111109,0)" xlink:href="#Q"/><use transform="matrix(0.055555555555555546,0,0,0.055555555555555546,23.27777777777777,0)" xlink:href="#Z"/><use transform="matrix(0.055555555555555546,0,0,0.055555555555555546,34.38888888888888,0)" xlink:href="#P"/><use transform="matrix(0.055555555555555546,0,0,0.055555555555555546,39.944444444444436,0)" xlink:href="#ag"/><use transform="matrix(0.055555555555555546,0,0,0.055555555555555546,51.05555555555554,0)" xlink:href="#R"/><use transform="matrix(0.055555555555555546,0,0,0.055555555555555546,62.16666666666666,0)" xlink:href="#M"/><use transform="matrix(0.055555555555555546,0,0,0.055555555555555546,67.7222222222222,0)" xlink:href="#R"/><use transform="matrix(0.055555555555555546,0,0,0.055555555555555546,78.83333333333331,0)" xlink:href="#ah"/><use transform="matrix(0.055555555555555546,0,0,0.055555555555555546,85.44444444444443,0)" xlink:href="#U"/><use transform="matrix(0.055555555555555546,0,0,0.055555555555555546,93.2222222222222,0)" xlink:href="#O"/><use transform="matrix(0.055555555555555546,0,0,0.055555555555555546,104.33333333333331,0)" xlink:href="#Z"/><use transform="matrix(0.055555555555555546,0,0,0.055555555555555546,115.44444444444443,0)" xlink:href="#N"/><use transform="matrix(0.055555555555555546,0,0,0.055555555555555546,127.61111111111109,0)" xlink:href="#ag"/></g><g id="r"><use transform="matrix(0.055555555555555546,0,0,0.055555555555555546,0,0)" xlink:href="#W"/><use transform="matrix(0.055555555555555546,0,0,0.055555555555555546,15.555555555555554,0)" xlink:href="#Z"/><use transform="matrix(0.055555555555555546,0,0,0.055555555555555546,26.666666666666664,0)" xlink:href="#U"/><use transform="matrix(0.055555555555555546,0,0,0.055555555555555546,34.44444444444444,0)" xlink:href="#O"/><use transform="matrix(0.055555555555555546,0,0,0.055555555555555546,45.55555555555555,0)" xlink:href="#V"/><use transform="matrix(0.055555555555555546,0,0,0.055555555555555546,57.722222222222214,0)" xlink:href="#T"/><use transform="matrix(0.055555555555555546,0,0,0.055555555555555546,69.88888888888889,0)" xlink:href="#L"/><use transform="matrix(0.055555555555555546,0,0,0.055555555555555546,82.05555555555554,0)" xlink:href="#R"/><use transform="matrix(0.055555555555555546,0,0,0.055555555555555546,93.16666666666666,0)" xlink:href="#O"/></g><g id="s"><use transform="matrix(0.055555555555555546,0,0,0.055555555555555546,0,0)" xlink:href="#aa"/><use transform="matrix(0.055555555555555546,0,0,0.055555555555555546,17.777777777777775,0)" xlink:href="#T"/><use transform="matrix(0.055555555555555546,0,0,0.055555555555555546,29.94444444444444,0)" xlink:href="#N"/><use transform="matrix(0.055555555555555546,0,0,0.055555555555555546,42.1111111111111,0)" xlink:href="#O"/><use transform="matrix(0.055555555555555546,0,0,0.055555555555555546,53.22222222222221,0)" xlink:href="#P"/><use transform="matrix(0.055555555555555546,0,0,0.055555555555555546,58.777777777777764,0)" xlink:href="#R"/><use transform="matrix(0.055555555555555546,0,0,0.055555555555555546,69.88888888888887,0)" xlink:href="#ab"/></g><path fill="#fff" d="M6 0l48-248h52L66-40h133l-8 40H6" id="ai"/><path fill="#fff" d="M147-102L127 0H76l19-102-65-146h52l45 107 83-107h57" id="aj"/><path fill="#fff" d="M6 0l48-248h52L58 0H6" id="ak"/><g id="t"><use transform="matrix(0.06172839506172839,0,0,0.06172839506172839,0,0)" xlink:href="#E"/><use transform="matrix(0.06172839506172839,0,0,0.06172839506172839,15.987654320987653,0)" xlink:href="#H"/><use transform="matrix(0.06172839506172839,0,0,0.06172839506172839,31.975308641975307,0)" xlink:href="#E"/><use transform="matrix(0.06172839506172839,0,0,0.06172839506172839,47.96296296296296,0)" xlink:href="#ai"/><use transform="matrix(0.06172839506172839,0,0,0.06172839506172839,59.81481481481482,0)" xlink:href="#aj"/><use transform="matrix(0.06172839506172839,0,0,0.06172839506172839,74.62962962962963,0)" xlink:href="#F"/><use transform="matrix(0.06172839506172839,0,0,0.06172839506172839,88.14814814814815,0)" xlink:href="#ak"/><use transform="matrix(0.06172839506172839,0,0,0.06172839506172839,94.32098765432099,0)" xlink:href="#ad"/><use transform="matrix(0.06172839506172839,0,0,0.06172839506172839,110.30864197530865,0)" xlink:href="#E"/><use transform="matrix(0.06172839506172839,0,0,0.06172839506172839,126.2962962962963,0)" xlink:href="#ai"/></g><path fill="#fff" d="M241-173c-1 82-78 91-166 86L58 0H6l48-248c87 0 188-12 187 75zm-53 2c0-43-48-36-90-36l-15 80c50 0 105 7 105-44" id="al"/><g id="u"><use transform="matrix(0.06172839506172839,0,0,0.06172839506172839,0,0)" xlink:href="#E"/><use transform="matrix(0.06172839506172839,0,0,0.06172839506172839,15.987654320987653,0)" xlink:href="#al"/><use transform="matrix(0.06172839506172839,0,0,0.06172839506172839,30.80246913580247,0)" xlink:href="#al"/></g><path fill="#fff" d="M18-101c0-91 52-150 145-150 68 0 111 34 111 101C274-54 221 4 128 4 59 4 18-33 18-101zm202-32c4-46-15-77-59-77-65 0-88 46-91 108-2 41 22 65 60 65 60 0 84-40 90-96" id="am"/><path fill="#fff" d="M212 0l43-212L151 0h-37L90-212C82-137 65-70 52 0H6l48-248h70l20 187 93-187h69L258 0h-46" id="an"/><g id="v"><use transform="matrix(0.06172839506172839,0,0,0.06172839506172839,0,0)" xlink:href="#ae"/><use transform="matrix(0.06172839506172839,0,0,0.06172839506172839,14.814814814814813,0)" xlink:href="#ad"/><use transform="matrix(0.06172839506172839,0,0,0.06172839506172839,30.80246913580247,0)" xlink:href="#am"/><use transform="matrix(0.06172839506172839,0,0,0.06172839506172839,48.08641975308642,0)" xlink:href="#G"/><use transform="matrix(0.06172839506172839,0,0,0.06172839506172839,62.90123456790123,0)" xlink:href="#aj"/><use transform="matrix(0.06172839506172839,0,0,0.06172839506172839,77.71604938271604,0)" xlink:href="#G"/><use transform="matrix(0.06172839506172839,0,0,0.06172839506172839,92.53086419753085,0)" xlink:href="#F"/><use transform="matrix(0.06172839506172839,0,0,0.06172839506172839,106.04938271604937,0)" xlink:href="#ae"/><use transform="matrix(0.06172839506172839,0,0,0.06172839506172839,120.86419753086417,0)" xlink:href="#an"/></g><path fill="#fff" d="M-6 0l7-35 114-120H31l7-35h142l-7 35L59-36h100l-7 36H-6" id="ao"/><g id="w"><use transform="matrix(0.055555555555555546,0,0,0.055555555555555546,0,0)" xlink:href="#J"/><use transform="matrix(0.055555555555555546,0,0,0.055555555555555546,6.61111111111111,0)" xlink:href="#U"/><use transform="matrix(0.055555555555555546,0,0,0.055555555555555546,14.388888888888886,0)" xlink:href="#O"/><use transform="matrix(0.055555555555555546,0,0,0.055555555555555546,25.499999999999993,0)" xlink:href="#Z"/><use transform="matrix(0.055555555555555546,0,0,0.055555555555555546,36.6111111111111,0)" xlink:href="#P"/><use transform="matrix(0.055555555555555546,0,0,0.055555555555555546,42.16666666666666,0)" xlink:href="#M"/><use transform="matrix(0.055555555555555546,0,0,0.055555555555555546,47.722222222222214,0)" xlink:href="#ao"/><use transform="matrix(0.055555555555555546,0,0,0.055555555555555546,57.722222222222214,0)" xlink:href="#Z"/><use transform="matrix(0.055555555555555546,0,0,0.055555555555555546,68.83333333333333,0)" xlink:href="#X"/><use transform="matrix(0.055555555555555546,0,0,0.055555555555555546,75.44444444444444,0)" xlink:href="#M"/><use transform="matrix(0.055555555555555546,0,0,0.055555555555555546,81,0)" xlink:href="#T"/><use transform="matrix(0.055555555555555546,0,0,0.055555555555555546,93.16666666666666,0)" xlink:href="#Q"/></g><g id="x"><use transform="matrix(0.055555555555555546,0,0,0.055555555555555546,0,0)" xlink:href="#T"/><use transform="matrix(0.055555555555555546,0,0,0.055555555555555546,12.166666666666664,0)" xlink:href="#S"/></g><path fill="#fff" d="M87-160c15-17 32-34 63-34 99 1 59 172-1 192-36 12-78 0-87-29L54 0H6l52-261h49zm71 38c0-24-5-37-29-37-46 0-55 46-57 89-1 25 12 40 35 40 44 0 51-50 51-92" id="ap"/><g id="y"><use transform="matrix(0.055555555555555546,0,0,0.055555555555555546,0,0)" xlink:href="#ap"/><use transform="matrix(0.055555555555555546,0,0,0.055555555555555546,12.166666666666664,0)" xlink:href="#L"/><use transform="matrix(0.055555555555555546,0,0,0.055555555555555546,24.33333333333333,0)" xlink:href="#R"/><use transform="matrix(0.055555555555555546,0,0,0.055555555555555546,35.444444444444436,0)" xlink:href="#M"/><use transform="matrix(0.055555555555555546,0,0,0.055555555555555546,40.99999999999999,0)" xlink:href="#Q"/><use transform="matrix(0.055555555555555546,0,0,0.055555555555555546,53.16666666666666,0)" xlink:href="#O"/><use transform="matrix(0.055555555555555546,0,0,0.055555555555555546,64.27777777777777,0)" xlink:href="#R"/><use transform="matrix(0.055555555555555546,0,0,0.055555555555555546,75.38888888888889,0)" xlink:href="#R"/></g><path fill="#fff" d="M109 0H50L19-190h51L86-37l77-153h54" id="aq"/><g id="z"><use transform="matrix(0.055555555555555546,0,0,0.055555555555555546,0,0)" xlink:href="#aq"/><use transform="matrix(0.055555555555555546,0,0,0.055555555555555546,11.111111111111109,0)" xlink:href="#Z"/><use transform="matrix(0.055555555555555546,0,0,0.055555555555555546,22.222222222222218,0)" xlink:href="#P"/><use transform="matrix(0.055555555555555546,0,0,0.055555555555555546,27.77777777777777,0)" xlink:href="#L"/><use transform="matrix(0.055555555555555546,0,0,0.055555555555555546,39.944444444444436,0)" xlink:href="#O"/><use transform="matrix(0.055555555555555546,0,0,0.055555555555555546,51.05555555555554,0)" xlink:href="#ab"/></g><path fill="#5ea0ef" d="M151-220L108 0H75l42-220H32l6-28h203l-5 28h-85" id="ar"/><path fill="#5ea0ef" d="M67-158c15-20 31-36 64-36 94 0 33 127 27 194h-32l25-140c3-38-53-32-70-12C52-117 51-51 37 0H6l51-261h31" id="as"/><path fill="#5ea0ef" d="M111-194c62-3 86 47 72 106H45c-7 38 6 69 45 68 27-1 43-14 53-32l24 11C152-15 129 4 87 4 38 3 12-23 12-71c0-70 32-119 99-123zm44 81c14-66-71-72-95-28-4 8-8 17-11 28h106" id="at"/><g id="A"><use transform="matrix(0.09259259259259256,0,0,0.09259259259259256,0,0)" xlink:href="#ar"/><use transform="matrix(0.09259259259259256,0,0,0.09259259259259256,20.27777777777777,0)" xlink:href="#as"/><use transform="matrix(0.09259259259259256,0,0,0.09259259259259256,38.79629629629628,0)" xlink:href="#at"/></g><path fill="#5ea0ef" d="M222 0l43-216c-8 16-17 34-26 49L143 0h-22L81-216 41 0H11l48-248h42l38 208 116-208h45L252 0h-30" id="au"/><path fill="#5ea0ef" d="M50-231l6-30h32l-6 30H50zM6 0l37-190h31L37 0H6" id="av"/><path fill="#5ea0ef" d="M55-144c13 50 104 24 104 88C159 21 15 23 1-39l26-10c6 40 102 42 102-4-13-50-104-23-104-87 0-71 143-71 148-8l-29 4c-5-35-85-37-89 0" id="aw"/><path fill="#5ea0ef" d="M67-158c22-48 132-52 116 29L158 0h-32l25-140c3-38-53-32-70-12C52-117 51-52 38 0H6l36-190h30" id="ax"/><path fill="#5ea0ef" d="M103-194c29 0 47 14 56 36 2-11 5-23 8-32h30L160-5C157 61 82 97 21 62 9 55 4 45 1 30l28-7c7 42 83 31 92-3 4-16 9-38 13-55-13 20-29 36-62 36-40 0-60-25-60-64 0-71 23-131 91-131zm4 24c-53 0-58 54-61 104-2 27 10 44 36 44 49 0 65-50 67-102 1-29-15-46-42-46" id="ay"/><g id="B"><use transform="matrix(0.09259259259259256,0,0,0.09259259259259256,0,0)" xlink:href="#au"/><use transform="matrix(0.09259259259259256,0,0,0.09259259259259256,27.685185185185176,0)" xlink:href="#av"/><use transform="matrix(0.09259259259259256,0,0,0.09259259259259256,34.999999999999986,0)" xlink:href="#aw"/><use transform="matrix(0.09259259259259256,0,0,0.09259259259259256,51.666666666666636,0)" xlink:href="#aw"/><use transform="matrix(0.09259259259259256,0,0,0.09259259259259256,68.3333333333333,0)" xlink:href="#av"/><use transform="matrix(0.09259259259259256,0,0,0.09259259259259256,75.64814814814811,0)" xlink:href="#ax"/><use transform="matrix(0.09259259259259256,0,0,0.09259259259259256,94.16666666666663,0)" xlink:href="#ay"/></g><path fill="#5ea0ef" d="M238-179c0 84-86 86-175 82L45 0H11l48-248c82 0 179-12 179 69zm-34 1c0-53-64-42-116-43l-19 98c63 0 135 9 135-55" id="az"/><path fill="#5ea0ef" d="M44-68c0 29 11 47 38 47 30 0 42-19 51-41l28 9C148-21 126 4 82 4 31 4 10-29 12-85c3-77 74-140 146-93 12 8 15 23 18 40l-31 5c-1-22-13-36-36-36-52 0-65 49-65 101" id="aA"/><g id="C"><use transform="matrix(0.09259259259259256,0,0,0.09259259259259256,0,0)" xlink:href="#az"/><use transform="matrix(0.09259259259259256,0,0,0.09259259259259256,22.222222222222214,0)" xlink:href="#av"/><use transform="matrix(0.09259259259259256,0,0,0.09259259259259256,29.537037037037027,0)" xlink:href="#at"/><use transform="matrix(0.09259259259259256,0,0,0.09259259259259256,48.055555555555536,0)" xlink:href="#aA"/><use transform="matrix(0.09259259259259256,0,0,0.09259259259259256,64.7222222222222,0)" xlink:href="#at"/></g></defs></g></svg>